<svg width="16" height="15" viewBox="0 0 16 15" fill="none" xmlns="http://www.w3.org/2000/svg">
<path d="M3.24707 0.720703C4.73455 0.18413 6.53687 0.575281 7.76465 2.47168L8.18359 3.11914L8.60352 2.47168C9.84109 0.56374 11.5527 0.20058 12.9297 0.729492C14.3384 1.27064 15.4998 2.78376 15.5 4.85059C15.5 5.55009 15.1263 6.42153 14.4619 7.39258C13.8077 8.34869 12.9192 9.33446 11.9951 10.25C11.0732 11.1634 10.1276 11.9953 9.36719 12.6445C8.98645 12.9696 8.65507 13.2463 8.39258 13.4678C8.31725 13.5313 8.24575 13.5919 8.17969 13.6484C8.10946 13.5902 8.03398 13.5269 7.9541 13.4619C7.67838 13.2377 7.33831 12.9652 6.9375 12.6377C6.14219 11.9879 5.15081 11.1551 4.18262 10.2412C3.2121 9.32511 2.27785 8.33915 1.58984 7.38281C0.890004 6.41003 0.5 5.54233 0.5 4.85059C0.50017 2.78583 1.73633 1.26568 3.24707 0.720703Z" stroke="#FFA451"/>
</svg>
